<?xml version="1.0" encoding="utf-8"?>
<!-- Generator: Adobe Illustrator 26.1.0, SVG Export Plug-In . SVG Version: 6.00 Build 0)  -->
<svg version="1.1" id="Capa_1" xmlns="http://www.w3.org/2000/svg" xmlns:xlink="http://www.w3.org/1999/xlink" x="0px" y="0px"
	 viewBox="0 0 512 155" style="enable-background:new 0 0 512 155;" xml:space="preserve">
<style type="text/css">
	.st0{fill:#9D9D9C;}
	.st1{fill-rule:evenodd;clip-rule:evenodd;fill:#CC282A;}
</style>
<g>
	<g>
		<g>
			<path class="st0" d="M8.7,49.6c0.8,2.3,1.3,5.1,2,8.4c3.6-0.8,7.4-1.3,11.4-1.8c-0.3-3.3-0.5-6.4-0.8-9.1
				C16.9,47.6,12.6,48.3,8.7,49.6L8.7,49.6z M10.8,59.3c0.5,2.3,0.8,5.1,0.8,7.6c3.3-0.3,6.9-0.3,10.7-0.3c0.3-3,0-6.1,0-8.9
				C18.1,58,14.3,58.5,10.8,59.3L10.8,59.3z M11.8,68.7c0,2.5-0.3,5.1-0.5,7.6c3,0.3,6.6,0.8,10.4,1c0.3-2.8,0.5-5.8,0.5-8.9
				C18.4,68.4,14.8,68.4,11.8,68.7L11.8,68.7z M11,78.1c-0.3,2.5-0.8,4.8-1.8,7.4c2.5,0.5,6.1,1.8,10.7,2.8c0.8-2.8,1.3-6.1,1.5-9.1
				C17.9,78.8,14.6,78.3,11,78.1L11,78.1z M92.6,75.3c1.8,4.1,3.8,8.1,6.1,12.2c6.6-3,13-7.6,18-14c-2.8-1.8-5.3-3.8-7.4-6.1
				C104,70.7,98.4,73.2,92.6,75.3L92.6,75.3z M88.8,64.4c1,2.8,2,5.8,3,8.9c5.6-1.8,11.2-4.3,16-7.4c-1.5-2-3-4.1-4.3-6.1
				C98.7,61.6,93.9,63.1,88.8,64.4L88.8,64.4z M87,54.9c0.3,2.5,0.8,5.1,1.5,7.6c4.8-1,9.7-2.5,14.2-4.1c-1-1.8-1.8-3.6-2.3-5.3
				C96.2,53.9,91.6,54.4,87,54.9L87,54.9z M86,44.3c0,3,0.3,6.1,0.8,9.1c4.3-0.5,8.9-1,13-1.8c-0.8-2.5-1.3-4.8-1.8-7.4
				C94.4,44.3,90.3,44.3,86,44.3L86,44.3z M86.5,36.4c-0.3,2.3-0.3,4.3-0.3,6.6c4.1-0.3,7.9-0.3,11.7-0.3c-0.3-1.8-0.3-3.6-0.3-5.3
				C93.9,37.2,90.1,36.9,86.5,36.4L86.5,36.4z M88.3,27.2c-0.5,2.5-1.3,5.3-1.5,7.9c3.6,0.5,7.1,0.8,10.9,1.3c0-2.3,0.3-4.3,0.8-6.4
				C95.4,29.3,91.8,28.3,88.3,27.2L88.3,27.2z M91.6,18.1c-1,2.5-2,5.3-2.8,8.1c3.6,1,6.9,1.8,9.9,2.8c0.5-2.3,1.3-4.6,2-6.6
				C97.4,20.6,94.4,19.4,91.6,18.1L91.6,18.1z M76.1,79.3c1,4.6,2,9.4,3,14.2c6.4-1,12.5-2.8,18-5.3c-2.3-4.3-4.3-8.4-5.8-12.5
				C86.2,77.3,81.2,78.6,76.1,79.3L76.1,79.3z M73.5,66.9c0.8,3.6,1.3,7.1,2,10.4c5.1-0.8,10.2-2,15-3.6c-1.3-3-2.3-6.1-3.3-9.1
				C82.7,65.6,78.1,66.4,73.5,66.9L73.5,66.9z M72.5,56c0.3,3,0.5,6.1,0.8,8.9c4.6-0.5,9.1-1,13.5-2c-0.5-2.5-1.3-5.1-1.5-7.6
				C81.2,55.5,76.8,55.7,72.5,56L72.5,56z M73,44.3c-0.3,3.6-0.5,6.9-0.5,10.2c4.3-0.3,8.4-0.5,12.5-1c-0.5-3-0.8-6.1-0.8-9.1H73z
				 M74.6,35.4c-0.5,2.5-1,5.1-1.3,7.6c11.2,0,11.2,0,11.2,0c0-2.3,0-4.6,0.5-6.6C81.2,35.9,77.9,35.6,74.6,35.4L74.6,35.4z
				 M77.6,24.7c-1,3-2,6.1-2.8,9.1c3.3,0.5,6.9,0.8,10.2,1.3c0.5-2.8,1-5.6,1.8-8.1C84,26.2,80.9,25.5,77.6,24.7L77.6,24.7z
				 M82.2,13.8c-1.5,3.3-3,6.6-4.1,9.7c3,0.8,6.1,1.5,9.1,2.3c0.8-2.8,1.8-5.6,3-8.4C87.3,16.1,84.7,15.1,82.2,13.8L82.2,13.8z
				 M61.9,80.9c0,4.6-0.3,9.4-0.3,13.7c4.8,0,9.9,0,15-0.8c-1-4.6-2-9.4-2.8-14C69.7,80.4,65.9,80.6,61.9,80.9L61.9,80.9z
				 M62.1,67.9c-0.3,3.8-0.3,7.4-0.3,10.9c3.8-0.3,7.6-0.5,11.4-1c-0.5-3.6-1.3-7.1-1.5-10.7C68.5,67.4,65.2,67.9,62.1,67.9
				L62.1,67.9z M62.1,56.2c0,3.3,0,6.6,0,9.7c3-0.3,6.1-0.5,9.4-0.8C71.3,62.1,71,59,71,56C67.9,56.2,65.2,56.2,62.1,56.2L62.1,56.2
				z M62.6,44.5c-0.3,3.3-0.3,6.6-0.5,10.2c3,0,5.8-0.3,8.6-0.3c0-3.3,0.3-6.6,0.5-10.2C68.5,44.3,65.4,44.5,62.6,44.5L62.6,44.5z
				 M63.1,34.1c-0.3,3-0.5,5.8-0.5,8.9c3,0,5.8,0,8.9,0c0.3-2.5,0.8-5.1,1.3-7.9L63.1,34.1z M64.6,21.7c-0.5,3.6-1,7.1-1.3,10.9
				c3,0.3,6.4,0.8,9.9,1c0.8-3,1.5-6.1,2.8-9.4C72.3,23.4,68.5,22.4,64.6,21.7L64.6,21.7z M68.2,8.4c-1.3,3.6-2.5,7.6-3.3,11.9
				c4.1,0.8,7.9,1.8,11.7,2.5c1-3,2.5-6.4,4.1-9.7C75.8,11.2,71.5,9.7,68.2,8.4L68.2,8.4z M47.9,80.9c-0.3,4.3-0.8,8.6-1,12.7
				c4.1,0.5,8.4,0.8,12.7,1c0.3-4.3,0.3-9.1,0.5-13.7C56,81.1,51.9,81.1,47.9,80.9L47.9,80.9z M48.4,68.7c-0.3,3.6-0.3,6.9-0.5,10.4
				c4.1,0,8.1,0,12.2-0.3c0-3.6,0.3-7.1,0.3-10.7C56.3,68.4,52.2,68.4,48.4,68.7L48.4,68.7z M48.9,56.5c-0.5,9.9-0.5,9.9-0.5,9.9
				c3.8,0,7.9-0.3,11.9-0.3c0-3.3,0-6.6,0.3-9.9C56.5,56.5,52.7,56.5,48.9,56.5L48.9,56.5z M49.4,44.8c-0.3,3.3-0.3,6.9-0.5,10.2
				c3.8,0,7.6-0.3,11.7-0.3c0-3.6,0.3-6.9,0.3-10.2C57,44.5,53.2,44.5,49.4,44.8L49.4,44.8z M50.4,33.1c-0.5,3.3-0.8,6.9-1,10.2
				c3.8,0,7.6,0,11.7-0.3c0-3,0.3-6.1,0.5-8.9C57.5,33.6,54,33.3,50.4,33.1L50.4,33.1z M52.2,19.6c-0.8,3.8-1.3,7.6-1.8,11.7
				c3.8,0.3,7.4,0.8,11.2,1c0.5-3.8,0.8-7.4,1.3-10.9C59.3,20.6,55.8,20.1,52.2,19.6L52.2,19.6z M55.8,4.6
				c-1.3,4.3-2.5,8.9-3.3,13.7c3.6,0.5,7.1,1,10.7,1.8c1-4.6,2-8.9,3.3-12.2C60.6,5.9,57.3,5.1,55.8,4.6L55.8,4.6z M34.9,80.4
				c-0.3,3.8-0.8,7.6-1.3,11.2c3.6,0.5,7.4,1.3,11.4,1.8c0.5-4.1,0.8-8.1,1.3-12.5C42.5,80.9,38.7,80.6,34.9,80.4L34.9,80.4z
				 M35.4,68.7c0,3.3-0.3,6.6-0.3,9.9c3.6,0.3,7.4,0.3,11.2,0.5c0.3-3.6,0.5-7.1,0.5-10.4C43,68.7,39.2,68.7,35.4,68.7L35.4,68.7z
				 M35.4,57c0,3,0,6.4,0,9.7c3.8,0,7.6,0,11.7-0.3c0-3.3,0.3-6.6,0.3-9.9C43.3,56.7,39.5,56.7,35.4,57L35.4,57z M35.4,45.5
				c0,9.7,0,9.7,0,9.7c4.1,0,7.9-0.3,12.2-0.3c0-3.3,0.3-6.9,0.3-10.2C43.6,45,39.5,45.3,35.4,45.5L35.4,45.5z M35.2,32.6
				c0,3.8,0,7.6,0.3,11.4c4.1-0.3,8.4-0.5,12.5-0.5c0.3-3.6,0.5-7.1,0.8-10.7C43.8,32.6,39.5,32.6,35.2,32.6L35.2,32.6z M35.9,18.1
				c-0.5,4.3-0.5,8.6-0.5,13c4.3-0.3,8.6,0,13.2,0.3c0.3-4.3,0.8-8.4,1.3-11.9C45.1,18.6,40.3,18.4,35.9,18.1L35.9,18.1z M23.5,79.3
				c-0.5,3.8-1,6.9-1.5,9.4c3,0.8,6.4,1.5,9.9,2.3c0.5-3.6,1-7.1,1.3-10.9C29.8,79.9,26.5,79.6,23.5,79.3L23.5,79.3z M24,68.4
				c0,3.6-0.3,6.4-0.5,9.1c3,0.3,6.4,0.5,9.9,0.8c0-3,0.3-6.4,0.3-9.7C30.3,68.7,27,68.4,24,68.4L24,68.4z M23.7,57.5
				c0.3,3.3,0.3,6.4,0.3,9.1c3-0.3,6.4,0,9.9,0c0-3.3,0-6.6,0-9.7C30.3,57,27,57.2,23.7,57.5L23.7,57.5z M23,46.8
				c0.3,3.3,0.5,6.4,0.8,9.1c3.3-0.3,6.6-0.5,10.2-0.5c0-3.3,0-6.6,0-9.9C30.1,45.8,26.5,46.3,23,46.8L23,46.8z M21.4,33.9
				c0.8,4.1,1,7.9,1.3,11.4c3.6-0.5,7.4-0.8,11.2-1c-0.3-4.1-0.3-7.9-0.3-11.7C29.6,32.8,25.5,33.1,21.4,33.9L21.4,33.9z
				 M60.3,109.6c6.6,0.8,13.2,1,19.1,1c-0.5-4.8-1.3-9.9-2.3-14.7c-5.3,0.5-10.4,0.8-15.8,0.5C61.1,100.9,60.8,105.5,60.3,109.6
				L60.3,109.6z M44.8,106.8c4.6,1,9.1,1.8,13.5,2.5c0.5-4.1,0.8-8.4,1-13c-4.1-0.3-8.4-0.5-12.7-1C46.1,99.4,45.6,103.2,44.8,106.8
				L44.8,106.8z M30.6,103c4.3,1.3,8.4,2.3,12.2,3.3c0.8-3.6,1.5-7.4,2-11.2c-3.8-0.5-7.9-1.3-11.4-2C32.6,96.6,31.9,99.9,30.6,103
				L30.6,103z M18.1,99.2c3.8,1.3,7.4,2.3,10.9,3.3c1-2.8,1.8-6.1,2.5-9.7c-3.6-0.8-6.9-1.5-10.2-2.3C20.4,95.1,19.2,97.6,18.1,99.2
				L18.1,99.2z M14.3,97.6c2.3,0.8,2.3,0.8,2.3,0.8c1.3-2.5,2-5.3,2.8-8.4c-3.8-1-7.4-1.8-10.9-2.8c0,0-0.5-1-0.8-2.3
				c0.8,0.3,0.8,0.3,0.8,0.3c0.8-2.3,1.3-4.8,1.5-7.1c-4.6-0.5-4.6-0.5-4.6-0.5S5.2,77.3,4.9,76c1.5,0,3.3,0.3,5.3,0.3
				c0.3-2.5,0.5-5.1,0.5-7.6c-2.5,0.3-4.8,0.5-6.9,1c0-0.5-0.3-1.8-0.3-1.8c2-0.5,4.3-0.8,7.1-1c-0.3-2.5-0.5-5.1-0.8-7.4
				c-2.3,0.5-4.3,1-6.4,1.5c0-0.3,0-1.3,0-1.3c2-0.8,4.1-1.3,6.1-1.8c-0.5-3-1.3-6.1-1.8-8.4c-1,0.5-2,0.8-3,1
				c0.3-0.8,0.3-1.5,0.3-1.5c0.8-0.3,1.5-0.5,2.5-0.8c-0.8-2.3-1.3-3.6-1.3-3.6C7,43.5,7,43.5,7,43.5s0.8,1.8,1.5,4.6
				c3.8-1,8.1-1.8,13-2.5c-0.5-4.3-1-8.1-1.5-11.4c-3.6,0.8-6.9,1.5-10.2,2.8c0.3-0.3,1-1.8,1-1.8c3-1,5.8-1.8,8.9-2.5
				c-0.8-5.1-1.5-8.4-1.5-8.4c1.8-1.8,1.8-1.8,1.8-1.8c0.5,3.6,1,6.9,1.5,9.9c3.8-0.8,8.1-1,12.2-1.3c0-4.8,0-9.1,0.3-13
				c-3.6,0-6.9,0-9.9,0.5c0-0.3,2-1.8,2-1.8c2.5-0.3,5.3-0.3,8.1,0c0-2.3,0.3-4.1,0.8-5.8c1.8-0.8,1.8-1,1.8-1
				c-0.3,2.3-0.5,4.6-0.8,6.9c4.6,0.3,9.4,0.5,14.2,1.3c0.8-5.1,1.8-9.7,3-13.5c0,0,1.3-0.3,2-0.3c1.8-0.3,3-0.3,3-0.3
				c2.5,0.5,5.3,1.5,8.6,2.8c0.3-1,0.8-2,1.3-2.8c0,0,1.5,0.3,2,0.3c-0.5,1-1,2-1.5,3c3.8,1.5,8.1,3.3,12.5,5.1
				c1-1.5,1.8-3.3,2.8-4.8c0.5,0,1,0.3,1,0.3c-0.8,1.8-1.8,3.6-2.5,5.1c2.8,1.3,5.6,2.3,8.1,3.6c0.8-1.5,1.5-3,2.3-4.8
				c1.3,1,1.3,1,1.3,1c-0.8,1.3-1.5,2.8-2.3,4.3c3.3,1.5,6.6,3,9.4,4.3c0.3-0.8,0.8-1.8,1.3-2.8c1,1,1,1,1,1c-0.5,0.8-0.8,1.8-1,2.5
				c2.5,1.3,4.8,2.3,6.4,3.3c0.8,1,1.3,1.5,1.3,1.5c-2.8-1.5-5.6-2.8-8.1-4.1c-0.8,2.3-1.3,4.3-1.8,6.6c7.4,2,12.7,3.8,14.5,4.1
				c0.3,0.8,0.5,1.3,0.5,1.3c-0.5,0-6.4-1.8-15.2-4.3c-0.3,2-0.5,3.8-0.8,5.8c5.6,0.5,11.4,0.8,17.3,0.8c0.3,1,0.8,1.3,0.8,1.3
				c-6.4-0.3-12.5-0.5-18-1c0,1.8,0.3,3.6,0.5,5.3c7.1-0.3,13.7-0.8,18.6-1.5c0.5,1,0.8,1.5,0.8,1.5c-4.1,1-10.9,1.3-19.3,1.5
				c0.5,2.3,1,4.6,1.8,6.9c6.6-1.3,13-3,18.6-5.6c0.3,1,0.3,1.3,0.3,1.3c-5.3,2.8-11.4,4.6-18,6.1c0.5,1.5,1.3,3.3,2.3,4.8
				c5.8-2.3,11.4-5.3,16.3-8.9c0.3,1,0.5,1.5,0.5,1.5c-5.1,3.6-10.4,6.4-16,8.6c1.3,2,2.5,4.1,4.1,5.8c4.6-3,8.6-6.6,12.5-10.7
				c0,0,0.3,1.5,0.3,2c-3.6,3.8-7.4,7.1-11.2,9.9c2,2.3,4.6,4.3,7.1,5.8c1.5-2,3-4.3,4.3-6.6c0,0,0.3,2.8,0,3.8
				c-0.8,1.5-1.5,2.8-2.5,3.8c0.8,0.5,1.3,0.8,2,1c-0.5,2-0.5,2-0.5,2c-0.8-0.5-1.8-0.8-2.5-1.3c-5.3,6.6-11.7,11.4-19.1,15
				c2.5,4.1,5.3,8.4,8.4,12.7c-1.3,1.3-1.3,1.3-1.3,1.3c-3-4.6-5.8-9.1-8.4-13.5c-5.8,2.5-12.2,4.3-18.8,5.3c0.8,4.6,1.5,9.7,2,14.7
				c9.4-0.5,18-2.5,24.9-6.6c0,0-0.8,1.3-3.8,4.3c-6.6,2.5-13.7,3.8-20.8,4.3c0,2.5,0,4.8,0,7.4c-1,0.8-1.8,0.8-1.8,0.8
				c0-2.8-0.3-5.3-0.5-7.9c-6.6,0.3-13.2-0.3-19.6-1c-0.8,4.1-1.5,7.9-2.8,11.2c0,0-0.5-0.5-1.5-0.5c1-3,1.8-6.9,2.3-10.9
				c-4.8-0.8-9.4-1.5-13.5-2.5c-1,3.8-2,7.1-3.6,9.9c0,0-1-0.5-1.8-1c1.3-2.8,2.3-5.8,3-9.4c-4.6-1-8.6-2-12.5-3.3
				c-0.8,2-1.8,4.1-2.8,5.8c-0.8-0.8-1.5-1-1.5-1c1-1.5,2-3.3,2.8-5.3c-5.6-1.8-9.9-3.3-12.2-4.3L14.3,97.6z"/>
		</g>
	</g>
	<g>
		<path class="st0" d="M165.8,115.5c0.7-1,1.2-1.5,2.3-1.5c1.3,0,1.9,1.3,1.8,1.4l-3.9,4.4c1.2,1.4,1.9,3.2,1.9,5.2
			c0,4.9-4.2,8.7-9.7,8.7c-0.4,0-0.8,0-1.3,0c-0.3,0.4-0.3,0.8-0.3,1.2c0,1.6,2.2,1.8,6.5,2.9c3.4,0.8,6.9,2.4,6.9,6.2
			c0,4.4-4.5,7-12,7c-7.5,0-11.1-2.1-11.1-6.4c0-3.6,3.3-6,7.6-6.8c-0.6-0.5-1-1.2-1-2.3c0-0.9,0.4-1.7,1.1-2.3
			c-3.6-1.2-5.9-4.3-5.9-7.9c0-4.9,4.1-8.9,9.6-8.9c2.2,0,4.3,0.7,5.9,1.8L165.8,115.5z M150.1,144.4c0,2.5,2.8,3.8,8.1,3.8
			c5.4,0,8.7-1.5,8.7-4.3c0-2.9-4.5-3.4-8.2-4.4C154.1,139.7,150.1,141.5,150.1,144.4z M164.6,125.1c0-3.6-2.6-6.1-6.4-6.1
			c-3.7,0-6.2,2.5-6.2,6.1c0,3.6,2.6,6,6.3,6C162.1,131.1,164.6,128.6,164.6,125.1z"/>
		<path class="st0" d="M173.8,139.1v-32c0-0.1,0.5-0.3,1.1-0.3c1.1,0,2.1,0.5,2.1,3.1v29.3c0,1.2-0.6,1.5-1.4,1.5h-0.3
			C174.4,140.6,173.8,140.3,173.8,139.1z"/>
		<path class="st0" d="M182.3,128.6c0-7.1,5.1-12.3,12.2-12.3c7,0,12.1,5.2,12.1,12.4c0,7.1-5.1,12.3-12.1,12.3
			C187.4,141,182.3,135.8,182.3,128.6z M203.3,128.7c0-5.5-3.8-9.6-8.9-9.6c-5.1,0-8.9,4-8.9,9.5c0,5.5,3.8,9.6,8.9,9.6
			C199.5,138.2,203.3,134.2,203.3,128.7z"/>
		<path class="st0" d="M214.9,139.1c0,1.2-0.5,1.5-1.4,1.5h-0.3c-0.8,0-1.4-0.3-1.4-1.5v-32c0-0.1,0.5-0.3,1.1-0.3
			c1.1,0,2.1,0.5,2.1,3.1v10.9c2.1-2.8,4.9-4.5,8.8-4.5c6.2,0,11.1,4.9,11.1,12.3c0,7.4-4.8,12.4-11.3,12.4c-4.3,0-7.3-2-8.6-4.2
			V139.1z M214.9,130.2c0,4.5,3.9,8,8.4,8c5,0,8.3-3.9,8.3-9.6c0-5.5-3.5-9.6-8.2-9.6c-4.1,0-7,2.2-8.5,5.6V130.2z"/>
		<path class="st0" d="M255.3,125.5c0-4.1-2.4-6.3-6.6-6.3c-3.8,0-6.2,1.9-7.5,4.4c0,0-1.8-0.1-1.8-1.9c0-1.7,3.4-5.4,9.6-5.4
			c6,0,9.6,3.5,9.6,9.2v14.9c0,0.1-0.5,0.3-1.1,0.3c-1.1,0-2-0.5-2-3.1v-0.9c-1.8,2.7-5.1,4.4-8.8,4.4c-5.1,0-8.1-2.6-8.1-6.6
			c0-5.5,5.5-7.8,16.4-8h0.5V125.5z M255.3,131.1v-2.2l-1.4,0c-8.1,0.3-12.2,1.7-12.2,5.4c0,2.4,1.9,3.9,5.1,3.9
			C251.7,138.3,255.3,135.3,255.3,131.1z"/>
		<path class="st0" d="M265.1,139.1v-32c0-0.1,0.5-0.3,1.1-0.3c1.1,0,2.1,0.5,2.1,3.1v29.3c0,1.2-0.6,1.5-1.4,1.5h-0.3
			C265.7,140.6,265.1,140.3,265.1,139.1z"/>
	</g>
	<path class="st1" d="M500.7,58.8c-1,0-1,0-1,0c-26.2,0.8-39.1,6.1-39.1,19.3c0,9.4,6.9,15.8,19.3,15.8c8.9,0,16.5-4.1,21.1-10.4
		c0,2,0,2,0,2c0,6.1,2.3,7.4,4.8,7.4c1.3,0,2.5-0.5,2.5-0.8c0-35.6,0-35.6,0-35.6c0-13.5-8.4-21.9-22.9-21.9
		c-14.7,0-22.9,9.1-22.9,13.2s4.3,4.6,4.3,4.3c3-5.8,8.9-10.4,18-10.4c10.2,0,15.8,5.3,15.8,15V58.8z M480.6,87.2
		c-7.9,0-12.5-3.6-12.5-9.1c0-8.9,9.9-12.5,29.2-13.2c3.3,0,3.3,0,3.3,0c0,5.1,0,5.1,0,5.1C500.7,80.1,492.1,87.2,480.6,87.2
		L480.6,87.2z M429.3,93.8c13.7,0,22.1-6.9,22.1-17c0-11.7-11.4-14.2-20.6-16.3c-10.4-2.3-15.8-3.8-15.8-9.9c0-5.6,4.8-9.4,14.2-9.4
		c7.6,0,13.2,3.3,16.5,8.1c0.3,0.5,4.3-1,4.3-3.8c0-4.3-7.1-10.9-20.8-10.9c-13.2,0-21.6,7.1-21.6,17c0,11.4,10.9,14,19.8,15.8
		c10.7,2.3,16.5,3.8,16.5,10.4c0,5.8-5.3,9.4-14.5,9.4c-9.4,0-15.5-3.8-19.3-8.9c-0.3-0.3-4.3,0.8-4.3,4.1
		C405.9,86.7,414.3,93.8,429.3,93.8L429.3,93.8z M387.4,58.8c-1.3,0-1.3,0-1.3,0c-25.9,0.8-39.1,6.1-39.1,19.3
		c0,9.4,7.1,15.8,19.6,15.8c8.9,0,16.5-4.1,20.8-10.4c0,2,0,2,0,2c0,6.1,2.3,7.4,4.8,7.4c1.5,0,2.8-0.5,2.8-0.8
		c0-35.6,0-35.6,0-35.6c0-13.5-8.6-21.9-22.9-21.9c-15,0-22.9,9.1-22.9,13.2s4.3,4.6,4.3,4.3c3-5.8,8.9-10.4,18-10.4
		c10.2,0,15.8,5.3,15.8,15V58.8z M367.1,87.2c-7.6,0-12.2-3.6-12.2-9.1c0-8.9,9.9-12.5,29.2-13.2c3.3,0,3.3,0,3.3,0
		c0,5.1,0,5.1,0,5.1C387.4,80.1,378.7,87.2,367.1,87.2L367.1,87.2z M314.4,93.8c16.5,0,24.4-10.4,24.4-15.5c0-3.6-4.8-4.3-5.1-3.8
		c-3,7.1-8.4,12.5-19.3,12.5c-12.2,0-21.1-9.7-21.1-22.9c0-13,9.1-22.6,21.1-22.6c10.9,0,16.3,5.6,19.3,12.5
		c0.3,0.5,5.1-0.3,5.1-3.6c0-5.1-7.9-15.8-24.4-15.8c-16.5,0-29,12.5-29,29.5C285.5,81.4,297.9,93.8,314.4,93.8L314.4,93.8z
		 M266.4,58.8c-1.3,0-1.3,0-1.3,0c-25.9,0.8-39.1,6.1-39.1,19.3c0,9.4,7.1,15.8,19.3,15.8c9.1,0,16.8-4.1,21.1-10.4c0,2,0,2,0,2
		c0,6.1,2.3,7.4,4.8,7.4c1.5,0,2.8-0.5,2.8-0.8c0-35.6,0-35.6,0-35.6c0-13.5-8.6-21.9-22.9-21.9c-15,0-23.1,9.1-23.1,13.2
		s4.6,4.6,4.6,4.3c3-5.8,8.9-10.4,17.8-10.4c10.2,0,16,5.3,16,15V58.8z M246.1,87.2c-7.6,0-12.2-3.6-12.2-9.1
		c0-8.9,9.9-12.5,29.2-13.2c3.3,0,3.3,0,3.3,0c0,5.1,0,5.1,0,5.1C266.4,80.1,257.8,87.2,246.1,87.2L246.1,87.2z M197.3,46.6
		c0-3.6,0-3.6,0-3.6c0-6.1-2.5-7.4-5.1-7.4c-1.5,0-2.5,0.5-2.5,0.8c0,52.9,0,52.9,0,52.9c0,2.8,1.3,3.6,3.3,3.6c1,0,1,0,1,0
		c1.8,0,3.3-0.8,3.3-3.6c0-22.1,0-22.1,0-22.1c0-14.5,3.8-24.9,14-24.9c3,0,5.1,0.8,6.9,2.3c0.3,0.3,2-1.3,2-4.1
		c0-3.6-2.8-5.8-8.1-5.8C204.4,34.6,199.6,38.7,197.3,46.6L197.3,46.6z M152.3,43c0,32.8,0,32.8,0,32.8c0,11.7,4.6,18,15.8,18
		c7.4,0,11.4-3.8,11.4-6.9s-2.3-4.1-2.5-3.8c-2,2.3-4.8,4.1-8.6,4.1c-6.4,0-8.6-3.8-8.6-12.2c0-32,0-32,0-32c15.2,0,15.2,0,15.2,0
		c2.8,0,3.6-1,3.6-3c0-0.8,0-0.8,0-0.8c0-2-0.8-3-3.6-3c-15.2,0-15.2,0-15.2,0c0-9.9,0-9.9,0-9.9c0-2.8-1.3-3.6-3.3-3.6
		c-0.8,0-0.8,0-0.8,0c-2,0-3.3,0.8-3.3,3.6c0,9.9,0,9.9,0,9.9c-5.3,0-5.3,0-5.3,0c-2.8,0-3.6,1-3.6,3c0,0.8,0,0.8,0,0.8
		c0,2,0.8,3,3.6,3H152.3z"/>
</g>
</svg>
